<svg fill="#000000" xmlns="http://www.w3.org/2000/svg" xmlns:xlink="http://www.w3.org/1999/xlink" version="1.1" x="0px" y="0px" viewBox="0 0 22 22" style="enable-background:new 0 0 22 22;" xml:space="preserve"><g><path d="M21.707,3.122c0.391-0.39,0.391-1.024,0-1.415l-1.414-1.414c-0.391-0.391-1.024-0.391-1.414,0l-1.414,1.414l2.828,2.829   L21.707,3.122z"/><path d="M0,4v16c0,1.104,0.895,2,2,2h16c1.104,0,2-0.896,2-2V6.212l-2,2V20H2V4h11.727l2-2H2C0.895,2,0,2.896,0,4z"/><rect x="6.221" y="6.779" transform="matrix(0.7071 -0.7071 0.7071 0.7071 -2.3349 11.9203)" width="14.001" height="4"/><polygon points="4.029,17.971 8.978,15.85 6.15,13.021  "/></g></svg>